<svg width="17" height="18" viewBox="0 0 17 18" fill="none" xmlns="http://www.w3.org/2000/svg">
<path d="M11.3331 9C11.3331 10.5604 10.0604 11.8331 8.5 11.8331C6.93958 11.8331 5.6669 10.5604 5.6669 9C5.6669 7.43958 6.93958 6.1669 8.5 6.1669C10.0604 6.1669 11.3331 7.43958 11.3331 9ZM12.8603 9C12.8603 6.58744 10.9126 4.63968 8.5 4.63968C6.08744 4.63968 4.13968 6.58744 4.13968 9C4.13968 11.4126 6.08744 13.3603 8.5 13.3603C10.9126 13.3603 12.8603 11.4126 12.8603 9ZM14.0555 4.46261C14.0555 3.8982 13.6018 3.44446 13.0374 3.44446C12.473 3.44446 12.0192 3.8982 12.0192 4.46261C12.0192 5.02702 12.473 5.48076 13.0374 5.48076C13.6018 5.48076 14.0555 5.02702 14.0555 4.46261ZM8.5 2.02791C9.73948 2.02791 12.3955 1.92831 13.5133 2.37098C13.9006 2.52592 14.1883 2.71405 14.4871 3.01286C14.7859 3.31166 14.9741 3.5994 15.129 3.98674C15.5717 5.10448 15.4721 7.76052 15.4721 9C15.4721 10.2395 15.5717 12.8955 15.129 14.0133C14.9741 14.4006 14.7859 14.6883 14.4871 14.9871C14.1883 15.2859 13.9006 15.4741 13.5133 15.629C12.3955 16.0717 9.73948 15.9721 8.5 15.9721C7.26052 15.9721 4.60448 16.0717 3.48674 15.629C3.0994 15.4741 2.81166 15.2859 2.51286 14.9871C2.21405 14.6883 2.02592 14.4006 1.87098 14.0133C1.42831 12.8955 1.52791 10.2395 1.52791 9C1.52791 7.76052 1.42831 5.10448 1.87098 3.98674C2.02592 3.5994 2.21405 3.31166 2.51286 3.01286C2.81166 2.71405 3.0994 2.52592 3.48674 2.37098C4.60448 1.92831 7.26052 2.02791 8.5 2.02791ZM16.9993 9C16.9993 7.82692 17.0104 6.6649 16.944 5.49182C16.8776 4.1306 16.5677 2.92432 15.5717 1.92831C14.5757 0.932297 13.3694 0.622426 12.0082 0.556026C10.8351 0.489625 9.67308 0.500692 8.5 0.500692C7.32692 0.500692 6.1649 0.489625 4.99182 0.556026C3.6306 0.622426 2.42432 0.932297 1.42831 1.92831C0.432297 2.92432 0.122427 4.1306 0.0560257 5.49182C-0.0103751 6.6649 0.000691675 7.82692 0.000691675 9C0.000691675 10.1731 -0.0103751 11.3351 0.0560257 12.5082C0.122427 13.8694 0.432297 15.0757 1.42831 16.0717C2.42432 17.0677 3.6306 17.3776 4.99182 17.444C6.1649 17.5104 7.32692 17.4993 8.5 17.4993C9.67308 17.4993 10.8351 17.5104 12.0082 17.444C13.3694 17.3776 14.5757 17.0677 15.5717 16.0717C16.5677 15.0757 16.8776 13.8694 16.944 12.5082C17.0104 11.3351 16.9993 10.1731 16.9993 9Z" fill="#F6EED3"/>
</svg>
